<?xml version="1.0" encoding="UTF-8"?>
<!DOCTYPE svg PUBLIC "-//W3C//DTD SVG 1.1//EN" "http://www.w3.org/Graphics/SVG/1.1/DTD/svg11.dtd">
<!-- Creator: CorelDRAW 2017 -->
<svg xmlns="http://www.w3.org/2000/svg" xml:space="preserve" width="13.5339mm" height="13.534mm" version="1.1" style="shape-rendering:geometricPrecision; text-rendering:geometricPrecision; image-rendering:optimizeQuality; fill-rule:evenodd; clip-rule:evenodd"
viewBox="0 0 98.12 98.12"
 xmlns:xlink="http://www.w3.org/1999/xlink">
 <defs>
  <style type="text/css">
   <![CDATA[
    .fil0 {fill:url(#id0)}
   ]]>
  </style>
  <linearGradient id="id0" gradientUnits="userSpaceOnUse" x1="36.48" y1="-15.84" x2="56.53" y2="110.71">
   <stop offset="0" style="stop-opacity:1; stop-color:#B18C43"/>
   <stop offset="0.529412" style="stop-opacity:1; stop-color:#F0CE7D"/>
   <stop offset="1" style="stop-opacity:1; stop-color:#D8AA4E"/>
  </linearGradient>
 </defs>
 <g id="Слой_x0020_1">
  <metadata id="CorelCorpID_0Corel-Layer"/>
  <path class="fil0" d="M49.06 0c27.09,0 49.06,21.97 49.06,49.06 0,27.09 -21.97,49.06 -49.06,49.06 -27.09,0 -49.06,-21.96 -49.06,-49.06 0,-27.09 21.96,-49.06 49.06,-49.06zm-11.96 20.52l23.91 -0.01c4.56,-0 8.71,1.86 11.72,4.87 3.01,3 4.87,7.15 4.87,11.72l0.01 23.91c0,4.56 -1.86,8.71 -4.87,11.72 -3,3.01 -7.15,4.87 -11.72,4.87l-23.91 0.01c-4.56,0 -8.71,-1.86 -11.72,-4.87 -3.01,-3 -4.87,-7.15 -4.87,-11.72l-0.01 -23.91c-0,-4.56 1.86,-8.71 4.87,-11.72 3,-3.01 7.15,-4.87 11.72,-4.87zm23.91 4.43l-23.91 0.01c-3.34,0 -6.38,1.37 -8.58,3.57 -2.2,2.2 -3.57,5.24 -3.57,8.58l0.01 23.91c0,3.34 1.37,6.38 3.57,8.58 2.2,2.2 5.24,3.57 8.58,3.57l23.91 -0.01c3.34,-0 6.38,-1.37 8.58,-3.57 2.2,-2.21 3.57,-5.24 3.57,-8.58l-0.01 -23.91c-0,-3.34 -1.37,-6.38 -3.57,-8.58 -2.2,-2.2 -5.24,-3.57 -8.58,-3.57zm-11.95 9.5c4.03,-0 7.69,1.63 10.33,4.28 2.64,2.64 4.28,6.3 4.28,10.33 0,4.03 -1.63,7.69 -4.28,10.33 -2.64,2.64 -6.3,4.28 -10.33,4.28 -4.03,0 -7.69,-1.63 -10.33,-4.28 -2.64,-2.64 -4.28,-6.3 -4.28,-10.33 -0,-4.03 1.63,-7.69 4.28,-10.33 2.64,-2.64 6.3,-4.28 10.33,-4.28zm7.2 7.41c-1.84,-1.84 -4.39,-2.98 -7.2,-2.98 -2.81,0 -5.35,1.14 -7.19,2.98 -1.84,1.84 -2.98,4.39 -2.98,7.2 0,2.81 1.14,5.35 2.98,7.19 1.84,1.84 4.39,2.98 7.2,2.98 2.81,-0 5.35,-1.14 7.19,-2.98 1.84,-1.84 2.98,-4.39 2.98,-7.2 -0,-2.81 -1.14,-5.35 -2.98,-7.19zm7.43 -12.48c1.94,0 3.52,1.57 3.52,3.52 0,1.94 -1.57,3.52 -3.52,3.52 -1.94,0 -3.52,-1.57 -3.52,-3.52 0,-1.94 1.57,-3.52 3.52,-3.52z"/>
 </g>
</svg>
