<?xml version="1.0" encoding="UTF-8"?>
<!DOCTYPE svg PUBLIC "-//W3C//DTD SVG 1.1//EN" "http://www.w3.org/Graphics/SVG/1.1/DTD/svg11.dtd">
<!-- Creator: CorelDRAW 2017 -->
<svg xmlns="http://www.w3.org/2000/svg" xml:space="preserve" width="13.5529mm" height="13.553mm" version="1.1" style="shape-rendering:geometricPrecision; text-rendering:geometricPrecision; image-rendering:optimizeQuality; fill-rule:evenodd; clip-rule:evenodd"
viewBox="0 0 71.56 71.56"
 xmlns:xlink="http://www.w3.org/1999/xlink">
 <defs>
  <style type="text/css">
   <![CDATA[
    .fil0 {fill:url(#id0)}
   ]]>
  </style>
  <linearGradient id="id0" gradientUnits="userSpaceOnUse" x1="26.61" y1="-11.55" x2="41.22" y2="80.74">
   <stop offset="0" style="stop-opacity:1; stop-color:#B18C43"/>
   <stop offset="0.529412" style="stop-opacity:1; stop-color:#F0CE7D"/>
   <stop offset="1" style="stop-opacity:1; stop-color:#D8AA4E"/>
  </linearGradient>
 </defs>
 <g id="Слой_x0020_1">
  <metadata id="CorelCorpID_0Corel-Layer"/>
  <path class="fil0" d="M31.11 28.6c5.25,-1.89 10.86,-3.92 15.11,-5.22 0.98,-0.3 1.78,-0.31 2.37,-0.1 0.3,0.11 0.55,0.27 0.74,0.49 0.2,0.21 0.34,0.47 0.43,0.77 0.21,0.69 0.14,1.6 -0.23,2.63 -0.32,0.88 -0.65,1.8 -0.99,2.77l-0.99 2.83 -5.91 16.83c-0.08,0.23 -0.16,0.49 -0.24,0.76 -0.51,1.64 -1.15,3.74 -3.15,3.64 -1.65,-0.08 -2.61,-2.11 -3.33,-3.64l-0.26 -0.54c-0.32,-0.66 -0.69,-1.4 -1.05,-2.11 -0.48,-0.96 -0.95,-1.9 -1.47,-2.98l-0.3 -0.62c-0.46,-0.97 -0.7,-1.46 -1.06,-1.83 -0.38,-0.38 -0.92,-0.65 -2.02,-1.18 -2.01,-0.99 -4.02,-1.99 -6.03,-2.96 -1.57,-0.75 -3.51,-1.68 -3.55,-3.51 -0.04,-1.97 1.94,-2.57 3.65,-3.1 0.3,-0.09 0.59,-0.18 0.86,-0.27 2.26,-0.79 4.79,-1.7 7.41,-2.64zm-31.11 7.38c0.02,7.65 2.87,15.26 6.41,20.17 1.01,1.4 3.29,4.26 4.66,5.45 3.17,2.73 5.59,4.82 9.82,6.7 6.75,3 14.51,4.23 22.57,2.42 7.48,-1.68 13.04,-5.26 17.27,-9.36 10.45,-10.13 13.86,-25.71 7.92,-39.63 -9.71,-22.74 -39.28,-29.38 -57.87,-11.46 -5.65,5.44 -10.81,14.42 -10.78,25.71z"/>
 </g>
</svg>
