<?xml version="1.0" encoding="UTF-8"?>
<!DOCTYPE svg PUBLIC "-//W3C//DTD SVG 1.1//EN" "http://www.w3.org/Graphics/SVG/1.1/DTD/svg11.dtd">
<!-- Creator: CorelDRAW 2017 -->
<svg xmlns="http://www.w3.org/2000/svg" xml:space="preserve" width="13.534mm" height="13.534mm" version="1.1" style="shape-rendering:geometricPrecision; text-rendering:geometricPrecision; image-rendering:optimizeQuality; fill-rule:evenodd; clip-rule:evenodd"
viewBox="0 0 121.7 121.7"
 xmlns:xlink="http://www.w3.org/1999/xlink">
 <defs>
  <style type="text/css">
   <![CDATA[
    .fil0 {fill:url(#id0)}
   ]]>
  </style>
  <linearGradient id="id0" gradientUnits="userSpaceOnUse" x1="45.25" y1="-19.64" x2="70.11" y2="137.31">
   <stop offset="0" style="stop-opacity:1; stop-color:#B18C43"/>
   <stop offset="0.529412" style="stop-opacity:1; stop-color:#F0CE7D"/>
   <stop offset="1" style="stop-opacity:1; stop-color:#D8AA4E"/>
  </linearGradient>
 </defs>
 <g id="Слой_x0020_1">
  <metadata id="CorelCorpID_0Corel-Layer"/>
  <path class="fil0" d="M60.85 0c33.61,0 60.85,27.24 60.85,60.85 0,33.61 -27.24,60.85 -60.85,60.85 -33.61,0 -60.85,-27.24 -60.85,-60.85 0,-33.6 27.24,-60.85 60.85,-60.85zm-11.1 45.81c0.76,0.45 0.79,0.64 1.25,1.29 1.41,2 0.78,11.3 -0.33,13.41 -2.17,4.11 -8.39,-8.98 -8.98,-10.17 -0.95,-1.9 -1.9,-5.64 -3.83,-6.39 -0.6,-0.23 -9,-0.4 -10.12,-0.33 -1.79,0.12 -2.84,0.61 -2.18,2.69 0.13,0.39 1.29,3.08 1.52,3.54 1.77,3.47 5.06,10.53 6.93,13.41 4.82,7.43 6.73,11.15 15.04,15.75 1.61,0.89 5.97,2 8.36,2.04 1.42,0.02 3.73,0.27 4.92,-0.07 1.99,-0.57 1.52,-1.48 1.83,-3.3 1.93,-10.99 6.24,-2.14 9.44,0.79 2.63,2.41 2.75,3 7.25,3.1 2.15,0.05 8.37,0.58 9.84,-0.23 1.36,-0.75 2.05,-1.45 1.08,-3.37 -1.5,-2.95 -4.6,-5.96 -6.91,-8.38 -2.11,-2.21 -4.41,-3.61 -2.81,-6.33 1.11,-1.88 2.91,-3.96 4.47,-5.78 1.7,-2 2.81,-4.01 4.33,-5.99 0.39,-0.52 1.49,-2.64 1.79,-3.36 0.72,-1.72 0.14,-2.78 -1.63,-3.08 -2.24,-0.38 -7.41,-0.27 -10.09,-0.33 -2.31,-0.05 -2.88,-0.32 -4.05,1.34 -0.41,0.59 -1.18,2.73 -1.58,3.59 -1.04,2.28 -6.3,11.43 -8.71,11.85 -4.3,0.75 -0.03,-14.91 -2.38,-17.4 -1.72,-1.82 -5.78,-1.5 -8.9,-1.56 -1.41,-0.03 -3.46,0.07 -4.69,0.32 -0.61,0.12 -3.24,1.33 -2.87,2.23 0.09,0.21 1.72,0.54 2.02,0.71z"/>
 </g>
</svg>
